<svg xmlns="http://www.w3.org/2000/svg" style="display: none;">

  <symbol id="github" viewBox="0 0 24 24">
  <g transform="scale(1.5)">
    <path fill="currentColor" d="M8 0C3.58 0 0 3.58 0 8c0 3.54 2.29 6.53 5.47 7.59.4.07.55-.17.55-.38 0-.19-.01-.82-.01-1.49-2.01.37-2.53-.49-2.69-.94-.09-.23-.48-.94-.82-1.13-.28-.15-.68-.52-.01-.53.63-.01 1.08.58 1.23.82.72 1.21 1.87.87 2.33.66.07-.52.28-.87.51-1.07-1.78-.2-3.64-.89-3.64-3.95 0-.87.31-1.59.82-2.15-.08-.2-.36-1.02.08-2.12 0 0 .67-.21 2.2.82.64-.18 1.32-.27 2-.27s1.36.09 2 .27c1.53-1.04 2.2-.82 2.2-.82.44 1.1.16 1.92.08 2.12.51.56.82 1.27.82 2.15 0 3.07-1.87 3.75-3.65 3.95.29.25.54.73.54 1.48 0 1.07-.01 1.93-.01 2.2 0 .21.15.46.55.38A8.01 8.01 0 0 0 16 8c0-4.42-3.58-8-8-8"/>
    </g>
  </symbol>

  <symbol id="twitter" viewBox="0 0 24 24">
  <g transform="scale(1.5)">
    <path fill="currentColor" d="M5.026 15c6.038 0 9.341-5.003 9.341-9.334q.002-.211-.006-.422A6.7 6.7 0 0 0 16 3.542a6.7 6.7 0 0 1-1.889.518 3.3 3.3 0 0 0 1.447-1.817 6.5 6.5 0 0 1-2.087.793A3.286 3.286 0 0 0 7.875 6.03a9.32 9.32 0 0 1-6.767-3.429 3.29 3.29 0 0 0 1.018 4.382A3.3 3.3 0 0 1 .64 6.575v.045a3.29 3.29 0 0 0 2.632 3.218 3.2 3.2 0 0 1-.865.115 3 3 0 0 1-.614-.057 3.28 3.28 0 0 0 3.067 2.277A6.6 6.6 0 0 1 .78 13.58a6 6 0 0 1-.78-.045A9.34 9.34 0 0 0 5.026 15"/>
  </g>
  </symbol>

  <symbol id="farcaster" viewBox="0 0 24 24">
  <g transform="scale(1.3) translate(-3 -2)">
    <path fill="currentColor" d="M6.187 3.733h11.626v16.534h-1.707v-7.573h-.017c-.189-2.093-1.931-3.733-4.089-3.733s-3.9 1.64-4.089 3.733h-.017v7.573H6.187V3.733z"/>
    <path fill="currentColor" d="M3.093 6.08l.693 2.347h.587v9.493a.533.533 0 0 0-.533.533v.64h-.107a.533.533 0 0 0-.533.533v.64h5.973v-.64a.533.533 0 0 0-.533-.533h-.107v-.64a.533.533 0 0 0-.533-.533h-.64V6.08H3.093z"/>
    <path fill="currentColor" d="M16.213 17.92a.533.533 0 0 0-.533.533v.64h-.107a.533.533 0 0 0-.533.533v.64h5.973v-.64a.533.533 0 0 0-.533-.533h-.107v-.64a.533.533 0 0  0-.533-.533V8.427h.587l.693-2.347h-4.267v11.84h-.64z"/>
  </g>
  </symbol>

  <symbol id="rss" viewBox="-271 273 256 256">
  <g transform="scale(0.85) translate(-50 80)">
    <path fill="currentColor" d="M-271,360v48.9c31.9,0,62.1,12.6,84.7,35.2c22.6,22.6,35.1,52.8,35.1,84.8v0.1h49.1c0-46.6-19-88.7-49.6-119.4C-182.2,379-224.4,360.1-271,360z"/>
    <path fill="currentColor" d="M-237,460.9c-9.4,0-17.8,3.8-24,10s-10,14.6-10,24c0,9.3,3.8,17.7,10,23.9c6.2,6.1,14.6,9.9,24,9.9s17.8-3.7,24-9.9 s10-14.6,10-23.9c0-9.4-3.8-17.8-10-24C-219.2,464.7-227.6,460.9-237,460.9z"/>
    <path fill="currentColor" d="M-90.1,348.1c-46.3-46.4-110.2-75.1-180.8-75.1v48.9C-156.8,322-64.1,414.9-64,529h49C-15,458.4-43.7,394.5-90.1,348.1z"/> </symbol>
  </g>
</svg>
